<svg width="448" height="512" version="1.1" viewBox="0 0 448 512" xmlns="http://www.w3.org/2000/svg">
 <path x="0" y="0" width="448" height="320" rx="0" ry="0" d="m160 0h128a160 160 45 0 1 160 160 160 160 135 0 1-160 160h-288v-160a160 160 135 0 1 160-160z" fill="#80e9ff"/>
 <path x="0" y="192" width="448" height="320" rx="0" ry="0" d="m127.69 192.47h160.31a160 160 45 0 1 160 160 160 160 135 0 1-160 160h-288v-192.31a127.69 127.69 135 0 1 127.69-127.69z" fill="#7a73ff"/>
 <path d="m127.69 192.47a127.69 127.69 0 0 0-127.67 127.53h287.99a160 160 0 0 0 127.7-63.908 160 160 0 0 0-127.7-63.619h-160.31z" fill="#0048e5" fill-opacity=".5"/>
</svg>
